<svg xmlns="http://www.w3.org/2000/svg" width="18.667" height="14" viewBox="0 0 18.667 14">
    <path id="prefix__email_1_" d="M16.917 59.882H1.75A1.752 1.752 0 0 0 0 61.632v10.5a1.752 1.752 0 0 0 1.75 1.75h15.167a1.752 1.752 0 0 0 1.75-1.75v-10.5a1.752 1.752 0 0 0-1.75-1.75zm0 1.167a.58.58 0 0 1 .224.045L9.333 67.86l-7.807-6.766a.581.581 0 0 1 .224-.045zm0 11.667H1.75a.584.584 0 0 1-.583-.583v-9.807l7.784 6.747a.584.584 0 0 0 .765 0l7.784-6.747v9.806a.584.584 0 0 1-.583.583z" data-name="email (1)" transform="translate(0 -59.882)" style="fill:#6c6b6c"/>
</svg>
