<svg xmlns="http://www.w3.org/2000/svg" width="27.833" height="23.155" viewBox="0 0 27.833 23.155">
    <g id="prefix__next_1_" data-name="next (1)" transform="translate(0 -41.346)">
        <g id="prefix__Group_17" data-name="Group 17" transform="translate(0 41.346)">
            <path id="prefix__Path_207" d="M27.388 51.842L17.337 41.79a1.528 1.528 0 0 0-2.154 0l-.913.913a1.512 1.512 0 0 0-.445 1.077 1.542 1.542 0 0 0 .445 1.09l5.864 5.877H1.5a1.487 1.487 0 0 0-1.5 1.5v1.291A1.544 1.544 0 0 0 1.5 55.1h18.7l-5.93 5.91a1.509 1.509 0 0 0 0 2.139l.913.91a1.528 1.528 0 0 0 2.154 0L27.389 54a1.536 1.536 0 0 0 0-2.162z" data-name="Path 207" transform="translate(0 -41.346)" style="fill:#fafafa"/>
        </g>
    </g>
</svg>
