<svg xmlns="http://www.w3.org/2000/svg" width="57.769" height="51.901" viewBox="0 0 57.769 51.901">
    <defs>
        <style>
            .prefix__cls-1{fill:#70b63e}
        </style>
    </defs>
    <g id="prefix__pay" transform="translate(0 -26.001)">
        <g id="prefix__Group_69" data-name="Group 69" transform="translate(41.697 66.33)">
            <g id="prefix__Group_68" data-name="Group 68">
                <path id="prefix__Path_222" d="M373.785 383.638a1.128 1.128 0 0 0-1.57.285 12.778 12.778 0 0 1-1.159 1.435 13.777 13.777 0 0 1-1.1 1.037 1.128 1.128 0 1 0 1.463 1.719 15.813 15.813 0 0 0 1.291-1.217 15.016 15.016 0 0 0 1.363-1.689 1.128 1.128 0 0 0-.288-1.57z" class="prefix__cls-1" data-name="Path 222" transform="translate(-369.556 -383.437)"/>
            </g>
        </g>
        <g id="prefix__Group_71" data-name="Group 71" transform="translate(38.802 70.941)">
            <g id="prefix__Group_70" data-name="Group 70">
                <path id="prefix__Path_223" d="M346.105 424.952a1.128 1.128 0 0 0-1.5-.542l-.035.016a1.128 1.128 0 1 0 .911 2.064l.082-.037a1.129 1.129 0 0 0 .542-1.501z" class="prefix__cls-1" data-name="Path 223" transform="translate(-343.896 -424.302)"/>
            </g>
        </g>
        <g id="prefix__Group_73" data-name="Group 73" transform="translate(0 26.001)">
            <g id="prefix__Group_72" data-name="Group 72">
                <path id="prefix__Path_224" d="M54.4 26H3.371A3.375 3.375 0 0 0 0 29.372v31.62a3.374 3.374 0 0 0 3.371 3.371h23.76a18.858 18.858 0 0 0 5.276 9.213C35.312 76.4 38.643 77.9 39.93 77.9s4.618-1.5 7.524-4.326a18.859 18.859 0 0 0 5.276-9.213h1.67a3.375 3.375 0 0 0 3.371-3.371V29.372A3.375 3.375 0 0 0 54.4 26zM51 59.739a16.655 16.655 0 0 1-5.046 12.149 14.129 14.129 0 0 1-6.022 3.757 14.128 14.128 0 0 1-6.023-3.757 16.656 16.656 0 0 1-5.046-12.149v-5.556A50.5 50.5 0 0 0 39.931 49.5 52.249 52.249 0 0 0 51 54.182zm4.513 1.253a1.115 1.115 0 0 1-1.113 1.114h-1.278a20.818 20.818 0 0 0 .134-2.367v-6.412a1.128 1.128 0 0 0-.833-1.089A49.773 49.773 0 0 1 40.5 47.225a1.129 1.129 0 0 0-1.14 0 48.41 48.41 0 0 1-11.923 5.013 1.128 1.128 0 0 0-.833 1.089v6.412a20.793 20.793 0 0 0 .134 2.367H3.371a1.115 1.115 0 0 1-1.114-1.114V41.8h53.255zm0-21.452H2.257v-4.513h53.255zm0-6.77H2.257v-3.4a1.115 1.115 0 0 1 1.114-1.114H54.4a1.116 1.116 0 0 1 1.114 1.114z" class="prefix__cls-1" data-name="Path 224" transform="translate(0 -26.001)"/>
            </g>
        </g>
        <g id="prefix__Group_75" data-name="Group 75" transform="translate(4.513 49.695)">
            <g id="prefix__Group_74" data-name="Group 74">
                <path id="prefix__Path_225" d="M49.027 236a5.083 5.083 0 0 0-1.974.4 5.077 5.077 0 1 0 0 9.355A5.077 5.077 0 1 0 49.027 236zm-3.948 7.9a2.821 2.821 0 1 1 2.821-2.82 2.824 2.824 0 0 1-2.822 2.82zm4.228-.014a5.064 5.064 0 0 0 0-5.613 2.821 2.821 0 0 1 0 5.613z" class="prefix__cls-1" data-name="Path 225" transform="translate(-40.001 -236.003)"/>
            </g>
        </g>
        <g id="prefix__Group_77" data-name="Group 77" transform="translate(4.513 44.618)">
            <g id="prefix__Group_76" data-name="Group 76">
                <path id="prefix__Path_226" d="M46.931 191h-5.8a1.128 1.128 0 0 0 0 2.257h5.8a1.128 1.128 0 0 0 0-2.257z" class="prefix__cls-1" data-name="Path 226" transform="translate(-39.999 -191.001)"/>
            </g>
        </g>
        <g id="prefix__Group_79" data-name="Group 79" transform="translate(13.598 44.618)">
            <g id="prefix__Group_78" data-name="Group 78">
                <path id="prefix__Path_227" d="M121.7 191h-.053a1.128 1.128 0 0 0 0 2.257h.053a1.128 1.128 0 0 0 0-2.257z" class="prefix__cls-1" data-name="Path 227" transform="translate(-120.522 -191.001)"/>
            </g>
        </g>
        <g id="prefix__Group_81" data-name="Group 81" transform="translate(33.406 56.814)">
            <g id="prefix__Group_80" data-name="Group 80">
                <path id="prefix__Path_228" d="M308.794 299.428a1.128 1.128 0 0 0-1.6 0l-6.034 6.033L298 302.3a1.128 1.128 0 0 0-1.6 1.6l3.96 3.96a1.128 1.128 0 0 0 1.6 0l6.831-6.831a1.128 1.128 0 0 0 .003-1.601z" class="prefix__cls-1" data-name="Path 228" transform="translate(-296.077 -299.098)"/>
            </g>
        </g>
    </g>
</svg>
