<svg xmlns="http://www.w3.org/2000/svg" id="prefix__next_1_" width="27.833" height="23.155" data-name="next (1)" viewBox="0 0 27.833 23.155">
    <g id="prefix__Group_17" data-name="Group 17">
        <path id="prefix__Path_207" d="M.445 51.842L10.5 41.79a1.528 1.528 0 0 1 2.154 0l.913.913a1.512 1.512 0 0 1 .445 1.077 1.542 1.542 0 0 1-.445 1.09L7.7 50.747h18.63a1.487 1.487 0 0 1 1.5 1.5v1.291a1.544 1.544 0 0 1-1.5 1.564H7.633l5.93 5.91a1.509 1.509 0 0 1 0 2.139l-.913.91a1.528 1.528 0 0 1-2.154 0L.445 54a1.536 1.536 0 0 1 0-2.162z" data-name="Path 207" transform="translate(0 -41.346)" style="fill:#fafafa"/>
    </g>
</svg>
