<svg xmlns="http://www.w3.org/2000/svg" width="27.686" height="24.333" viewBox="0 0 27.686 24.333">
    <defs>
        <style>
            .prefix__cls-1{fill:#cfcfcf}
        </style>
    </defs>
    <g id="prefix__supermarket_3_" data-name="supermarket (3)">
        <path id="prefix__Path_233" d="M8.92 16.223h14.71a.811.811 0 0 0 .78-.588l3.244-11.356a.811.811 0 0 0-.78-1.034H7.049l-.58-2.61A.811.811 0 0 0 5.678 0H.811a.811.811 0 1 0 0 1.622h4.216L7.955 14.8a2.433 2.433 0 0 0 .967 4.666H23.63a.811.811 0 0 0 0-1.622H8.922a.811.811 0 0 1 0-1.622zM25.8 4.867L23.018 14.6H9.573L7.41 4.867zm0 0" class="prefix__cls-1" data-name="Path 233"/>
        <path id="prefix__Path_234" d="M150 362.433a2.433 2.433 0 1 0 2.433-2.433 2.436 2.436 0 0 0-2.433 2.433zm2.433-.811a.811.811 0 1 1-.811.811.812.812 0 0 1 .811-.811zm0 0" class="prefix__cls-1" data-name="Path 234" transform="translate(-141.889 -340.533)"/>
        <path id="prefix__Path_235" d="M362 362.433a2.433 2.433 0 1 0 2.433-2.433 2.436 2.436 0 0 0-2.433 2.433zm2.433-.811a.811.811 0 1 1-.811.811.812.812 0 0 1 .811-.811zm0 0" class="prefix__cls-1" data-name="Path 235" transform="translate(-342.425 -340.533)"/>
    </g>
</svg>
