<svg xmlns="http://www.w3.org/2000/svg" width="10.917" height="15.541" viewBox="0 0 10.917 15.541">
    <defs>
        <style>
            .prefix__cls-1{fill:#6c6b6c}
        </style>
    </defs>
    <g id="prefix__tracking" transform="translate(-76.248)">
        <path id="prefix__Path_200" d="M81.706 0a5.465 5.465 0 0 0-5.458 5.458c0 3.761 4.9 9.67 5.109 9.92a.455.455 0 0 0 .7 0c.209-.25 5.109-6.159 5.109-9.92A5.465 5.465 0 0 0 81.706 0zm0 14.36c-1.12-1.423-4.549-6.016-4.549-8.9a4.549 4.549 0 1 1 9.1 0c-.002 2.884-3.43 7.477-4.551 8.9z" class="prefix__cls-1" data-name="Path 200"/>
        <path id="prefix__Path_201" d="M143.071 63.184h-.493a2.736 2.736 0 0 0-2.236-2.236v-.493a.455.455 0 0 0-.91 0v.493a2.736 2.736 0 0 0-2.236 2.236h-.496a.455.455 0 0 0 0 .91h.493a2.736 2.736 0 0 0 2.236 2.236v.493a.455.455 0 0 0 .91 0v-.493a2.736 2.736 0 0 0 2.236-2.236h.493a.455.455 0 0 0 0-.91zm-3.184 2.274a1.819 1.819 0 1 1 1.819-1.819 1.822 1.822 0 0 1-1.819 1.819z" class="prefix__cls-1" data-name="Path 201" transform="translate(-58.181 -58.181)"/>
    </g>
</svg>
