<svg xmlns="http://www.w3.org/2000/svg" width="25.333" height="25.333" viewBox="0 0 25.333 25.333">
    <path id="prefix__user" d="M21.623 3.71A12.667 12.667 0 0 0 3.709 21.623 12.667 12.667 0 0 0 21.623 3.71zM6.35 21.889a6.414 6.414 0 0 1 12.633 0 11.158 11.158 0 0 1-12.633 0zm2.289-10.812a4.028 4.028 0 1 1 4.027 4.023 4.032 4.032 0 0 1-4.027-4.023zm11.63 9.783a7.911 7.911 0 0 0-4.6-5.163 5.512 5.512 0 1 0-6.007 0 7.91 7.91 0 0 0-4.6 5.163 11.182 11.182 0 1 1 15.2 0zm0 0" style="fill:#268540"/>
</svg>
